<svg xmlns="http://www.w3.org/2000/svg" viewBox="0 0 24 24"><defs><style>.a{fill:none;stroke:yellow;stroke-linecap:round;stroke-linejoin:round;}</style></defs><title>charging-battery-empty</title><path fill="#ffff00" class="a" d="M15.5,17.75h4a1,1,0,0,0,1-1v-2h2a1,1,0,0,0,1-1v-3a1,1,0,0,0-1-1h-2v-2a1,1,0,0,0-1-1H15"/><path fill="#ffff00" class="a" d="M8.5,6.75h-7a1,1,0,0,0-1,1v9a1,1,0,0,0,1,1H9"/><polygon fill="#ffff00" class="a" points="12.5 6.25 8.5 13.75 11.5 13.75 11.5 18.25 15.5 10.75 12.5 10.75 12.5 6.25"/></svg>