<svg xmlns="http://www.w3.org/2000/svg" viewBox="0 0 24 24"><defs><style>.a{fill:none;stroke:#FFF;stroke-linecap:round;stroke-linejoin:round;}</style></defs><title>os-system-apple</title><path class="a" d="M17.576,13.287a4.929,4.929,0,0,1,2.354-4.15,5.1,5.1,0,0,0-3.987-2.159c-1.7-.172-3.31,1-4.172,1S9.582,7,8.176,7.028a5.34,5.34,0,0,0-4.51,2.733c-1.921,3.334-.49,8.276,1.383,10.982.914,1.323,2.007,2.81,3.439,2.755,1.381-.054,1.9-.892,3.571-.892s2.136.892,3.6.865c1.485-.027,2.426-1.348,3.334-2.676a11.979,11.979,0,0,0,1.51-3.1A4.812,4.812,0,0,1,17.576,13.287Z"/><path class="a" d="M15.01,4.173A5.077,5.077,0,0,0,16.207.5a5.156,5.156,0,0,0-3.389,1.741A4.824,4.824,0,0,0,11.6,5.8,4.271,4.271,0,0,0,15.01,4.173Z"/></svg>