<svg xmlns="http://www.w3.org/2000/svg" viewBox="0 0 24 24"><defs><style>.a{fill:none;stroke:#FFF;stroke-linecap:round;stroke-linejoin:round;}</style></defs><title>os-system-microsoft</title><path class="a" d="M14.821,22.5a10.169,10.169,0,0,1-4.155-1.463l2.03-7.049a6.888,6.888,0,0,0,4.4,1.432,11.424,11.424,0,0,0,3.844-.732l-1.957,6.84a11,11,0,0,1-4.164.972"/><path class="a" d="M8.371,20.286A6.91,6.91,0,0,0,4.326,18.87,10.328,10.328,0,0,0,.5,19.738l2.036-7.06a11.638,11.638,0,0,1,4.033-.93,7.3,7.3,0,0,1,3.91,1.349C10.209,14.02,8.789,18.869,8.371,20.286Z"/><path class="a" d="M12.932,3.086v.005c-.418,1.432-1.657,5.675-2.073,7.087a6.879,6.879,0,0,0-3.91-1.4A10.627,10.627,0,0,0,3,9.7L5.008,2.656A10.624,10.624,0,0,1,8.8,1.767,7.2,7.2,0,0,1,12.932,3.086Z"/><path class="a" d="M17.558,12.5a7.812,7.812,0,0,1-4.378-1.368l-.022-.015L15.217,4a7,7,0,0,0,4.349,1.455,9.782,9.782,0,0,0,3.934-.9l-2.029,6.989-.01.006,0,.009a9.1,9.1,0,0,1-3.9.938"/></svg>