<?xml version="1.0" encoding="UTF-8"?>
<svg width="21px" height="21px" viewBox="0 0 21 21" version="1.1" xmlns="http://www.w3.org/2000/svg" xmlns:xlink="http://www.w3.org/1999/xlink">
    <!-- Generator: Sketch 52.6 (67491) - http://www.bohemiancoding.com/sketch -->
    <title>Path</title>
    <desc>Created with Sketch.</desc>
    <g id="Page-1" stroke="none" stroke-width="1" fill="none" fill-rule="evenodd" stroke-linecap="round" stroke-linejoin="round">
        <g id="Group-5" transform="translate(-17.000000, -58.000000)" stroke="#7ED321" stroke-width="0.8">
            <g id="Group-2" transform="translate(18.000000, 59.000000)">
                <g id="social-media-facebook-1">
                    <path d="M9.89583333,18.6041667 L1.1875,18.6041667 C0.750274573,18.6041667 0.395833333,18.2497254 0.395833333,17.8125 L0.395833333,1.1875 C0.395833333,0.750274573 0.750274573,0.395833333 1.1875,0.395833333 L17.8125,0.395833333 C18.2497254,0.395833333 18.6041667,0.750274573 18.6041667,1.1875 L18.6041667,17.8125 C18.6041667,18.2497254 18.2497254,18.6041667 17.8125,18.6041667 L13.0625,18.6041667 L13.0625,11.4791667 L15.088375,11.4791667 C15.2891711,11.4807157 15.4593148,11.3316698 15.4842083,11.1324167 L15.7810833,8.75741667 C15.7952314,8.64422746 15.7598614,8.53043706 15.6840398,8.44521356 C15.6082182,8.35999005 15.4993166,8.31161921 15.38525,8.3125 L13.0625,8.3125 L13.0625,7.27145833 C13.0633732,6.53478642 13.6605777,5.93793616 14.39725,5.9375 L15.8333333,5.9375 C16.051946,5.9375 16.2291667,5.76027938 16.2291667,5.54166667 L16.2291667,3.16666667 C16.2291667,2.94805395 16.051946,2.77083333 15.8333333,2.77083333 L14.39725,2.77083333 C11.9125801,2.77345058 9.89888759,4.78678897 9.89583333,7.27145833 L9.89583333,8.3125 L7.91666667,8.3125 C7.69805395,8.3125 7.52083333,8.48972062 7.52083333,8.70833333 L7.52083333,11.0833333 C7.52083333,11.301946 7.69805395,11.4791667 7.91666667,11.4791667 L9.89583333,11.4791667 L9.89583333,18.6041667 Z" id="Path"></path>
                </g>
            </g>
        </g>
    </g>
</svg>